<?xml version="1.0" encoding="UTF-8"?>
<!DOCTYPE svg PUBLIC "-//W3C//DTD SVG 1.1//EN" "http://www.w3.org/Graphics/SVG/1.1/DTD/svg11.dtd">
<!-- Creator: CorelDRAW -->
<svg xmlns="http://www.w3.org/2000/svg" xml:space="preserve" width="159.701mm" height="159.701mm" style="shape-rendering:geometricPrecision; text-rendering:geometricPrecision; image-rendering:optimizeQuality; fill-rule:evenodd; clip-rule:evenodd"
viewBox="0 0 137.711 137.711"
 xmlns:xlink="http://www.w3.org/1999/xlink">
 <defs>
  <style type="text/css">
   <![CDATA[
    .fil0 {fill:white}
   ]]>
  </style>
 </defs>
 <g id="图层_x0020_1">
  <metadata id="CorelCorpID_0Corel-Layer"/>
  <path class="fil0" d="M10.3283 0l117.054 0c5.6806,0 10.3283,4.64773 10.3283,10.3283l0 117.054c0,5.6806 -4.64773,10.3283 -10.3283,10.3283l-117.054 0c-5.6806,0 -10.3283,-4.64773 -10.3283,-10.3283l0 -117.054c0,-5.6806 4.64773,-10.3283 10.3283,-10.3283zm111.551 78.2757c-15.5992,9.02729 -33.7085,14.1972 -53.0239,14.1972 -19.3156,0 -37.4249,-5.16994 -53.024,-14.1972l0.00137969 -0.00224199c-1.43841,-0.834107 -2.40617,-2.39039 -2.40617,-4.17234 0,-2.66159 2.15843,-4.81985 4.82002,-4.81985 0.925252,0 1.78954,0.261019 2.52362,0.713298 10.9315,6.30534 23.2148,10.5283 36.3076,12.1248 -3.46689,-3.50777 -7.07529,-8.51017 -10.9341,-15.0098 -2.24354,-3.92357 -4.05774,-7.50403 -5.43321,-10.7641l-0.0495825 -0.117187c-0.124344,-0.296374 -0.245153,-0.590247 -0.362168,-0.881102 -0.0400971,-0.0994237 -0.0795907,-0.198502 -0.118826,-0.296978 -0.0938187,-0.237047 -0.185137,-0.472112 -0.27404,-0.705365 -0.0543252,-0.142539 -0.107874,-0.28456 -0.160302,-0.425806 -0.070364,-0.188931 -0.139262,-0.377086 -0.206004,-0.563774 -1.44583,-4.02463 -2.12023,-7.50179 -2.00029,-10.481l0.000258691 -0.00948535c0.00948535,-0.232305 0.0237134,-0.461591 0.0428565,-0.687774 0.00560498,-0.0671735 0.0118136,-0.133398 0.0182808,-0.199882 0.0154352,-0.156767 0.0325089,-0.312499 0.052773,-0.46642 0.0173323,-0.134692 0.0364755,-0.268263 0.0574295,-0.400799 0.0120723,-0.0742444 0.0240583,-0.148575 0.0373378,-0.221957 0.267228,-1.52309 0.777626,-2.89812 1.53697,-4.13328l0.017591 0.0103476c3.72093,-5.98258 13.3395,-8.63511 29.3797,-8.87863l0.17272 0.000603613 0.17272 -0.000603613c16.0402,0.243515 25.6588,2.89605 29.3797,8.87863l0.017591 -0.0103476c0.759345,1.23516 1.26974,2.61019 1.53697,4.13328 0.0132795,0.0733821 0.0252655,0.147713 0.0373378,0.221957 0.020954,0.132536 0.0400971,0.266107 0.0574295,0.400799 0.0202641,0.153921 0.0373378,0.309653 0.052773,0.46642 0.00646728,0.0664837 0.0126759,0.132709 0.0182808,0.199882 0.0191432,0.226182 0.0333712,0.455469 0.0428565,0.687774l0.000258691 0.00948535c0.119947,2.97926 -0.554462,6.45642 -2.00029,10.481 -0.0667423,0.186689 -0.13564,0.374844 -0.206004,0.563774 -0.0524281,0.141245 -0.105977,0.283267 -0.160302,0.425806 -0.0889036,0.233253 -0.180222,0.468317 -0.27404,0.705365 -0.0392348,0.0984751 -0.0787284,0.197554 -0.118826,0.296978 -0.117015,0.290855 -0.237823,0.584728 -0.362168,0.881102l-0.0495825 0.117187c-1.37546,3.26003 -3.18966,6.84049 -5.43321,10.7641 -3.85881,6.49962 -7.46721,11.502 -10.9341,15.0098 13.0921,-1.59647 25.3744,-5.81874 36.3053,-12.1234 0.734597,-0.453055 1.59966,-0.714678 2.52586,-0.714678 2.66159,0 4.82002,2.15826 4.82002,4.81985 0,1.78187 -0.967678,3.33807 -2.40591,4.17217l0.00137969 0.00241445zm-76.6536 25.363l0.00922665 0.00508759 0.00931288 0.00526006 0.00922665 0.00526006 0.00939912 0.00517382 0.00922665 0.00526006c2.77964,1.56344 5.72967,2.85983 8.81568,3.85303l0.0195743 0.00612236c0.349923,0.112444 0.701484,0.221095 1.05486,0.325606l0.0325951 0.00965781c0.353372,0.104339 0.708555,0.204883 1.06538,0.301289l0.0155215 0.00413906c0.165821,0.0447536 0.331901,0.0883862 0.498412,0.131501l0.063638 0.0163838c0.172633,0.0443224 0.345439,0.0878688 0.518848,0.13038l0.0323364 0.00776074c0.161854,0.0394935 0.324054,0.0780385 0.486426,0.115894l0.0760552 0.0177635c0.344749,0.0799356 0.691137,0.155905 1.03882,0.228338l0.0910593 0.0188845c0.159613,0.03294 0.319656,0.065104 0.479786,0.0964056l0.0419942 0.00836435c0.170219,0.0331987 0.340869,0.0651902 0.511691,0.0965781l0.107012 0.0192294c0.143142,0.0260416 0.286457,0.0513071 0.430117,0.0758828l0.100631 0.0174185c0.167028,0.0283698 0.334488,0.0557048 0.50212,0.0821776l0.106753 0.0166425c0.140556,0.022075 0.281456,0.0433739 0.422357,0.0641554l0.122792 0.0181084c0.169357,0.0244894 0.338886,0.0482028 0.508759,0.0707952l0.0727785 0.00957158c0.14435,0.0190569 0.288786,0.0373378 0.433653,0.0551012l0.152887 0.0186258c0.167459,0.0200917 0.335178,0.0394935 0.503154,0.0577744l0.00431152 0.000603613 0.017591 0.00181084c0.16608,0.0180222 0.332504,0.0348371 0.499102,0.0512209l0.133398 0.0129346c0.148316,0.0141418 0.296978,0.0275075 0.445553,0.0403558l0.0814015 0.00715712c0.171685,0.0144005 0.343801,0.0277662 0.516262,0.0404421l0.12443 0.00896796c0.141332,0.0099165 0.283008,0.0194018 0.424771,0.0282836l0.118136 0.00741582c0.172116,0.0103476 0.344577,0.0195743 0.517124,0.0279387l0.102269 0.0048289c0.149006,0.00698466 0.298012,0.0131933 0.44745,0.0189707l0.11736 0.00431152c0.174272,0.00620859 0.348888,0.0115549 0.523936,0.0159526l0.0839022 0.00163838c0.149782,0.00344922 0.300082,0.00603613 0.450295,0.00827812l0.144436 0.00163838c0.174875,0.0019833 0.350182,0.00319053 0.525661,0.00319053 0.175479,0 0.350613,-0.00120723 0.525661,-0.00319053l0.144436 -0.00163838c0.150213,-0.00206953 0.300513,-0.0048289 0.450295,-0.00827812l0.0839022 -0.00163838c0.174875,-0.00439775 0.349664,-0.00974404 0.523936,-0.0159526l0.11736 -0.00431152c0.149437,-0.00560498 0.298443,-0.0120723 0.44745,-0.0189707l0.102269 -0.0048289c0.17272,-0.00836435 0.345094,-0.017591 0.517124,-0.0279387l0.118136 -0.00741582c0.141763,-0.00888173 0.283439,-0.0183671 0.424771,-0.0282836l0.12443 -0.00896796c0.172461,-0.0125034 0.344577,-0.0260416 0.516262,-0.0404421l0.0814015 -0.00715712c0.148747,-0.0128483 0.297236,-0.026214 0.445553,-0.0403558l0.133398 -0.0129346c0.166597,-0.0162975 0.333022,-0.0331987 0.499102,-0.0512209l0.017591 -0.00181084 0.00431152 -0.000603613c0.167977,-0.0182808 0.335695,-0.0376827 0.503154,-0.0577744l0.152887 -0.0186258c0.144695,-0.0177635 0.289303,-0.0360443 0.433653,-0.0551012l0.0727785 -0.00957158c0.16996,-0.0227648 0.339403,-0.0463057 0.508759,-0.0707952l0.122792 -0.0181084c0.1409,-0.0207815 0.281801,-0.0420804 0.422357,-0.0641554l0.106753 -0.0166425c0.167632,-0.026559 0.335091,-0.0538078 0.50212,-0.0821776l0.100631 -0.0174185c0.14366,-0.0245757 0.286975,-0.0498412 0.430117,-0.0758828l0.107012 -0.0192294c0.170822,-0.0313879 0.341472,-0.0633794 0.511691,-0.0965781l0.0419942 -0.00836435c0.16013,-0.0313016 0.320174,-0.0634656 0.479786,-0.0964056l0.0910593 -0.0188845c0.347681,-0.0724335 0.694069,-0.148316 1.03882,-0.228338l0.0760552 -0.0177635c0.162372,-0.0378552 0.324571,-0.0764001 0.486426,-0.115894l0.0323364 -0.00776074c0.173237,-0.0425116 0.346215,-0.086058 0.518848,-0.13038l0.063638 -0.0163838c0.166511,-0.0431152 0.332591,-0.0867478 0.498412,-0.131501l0.0155215 -0.00413906c0.356821,-0.0964056 0.711832,-0.19695 1.06538,-0.301289l0.0325951 -0.00965781c0.353372,-0.104511 0.704934,-0.213162 1.05486,-0.325606l0.0195743 -0.00612236c3.08239,-0.992081 6.02966,-2.28674 8.80663,-3.84795l0.00922665 -0.00526006 0.00922665 -0.00517382 0.00922665 -0.00508759 0.00922665 -0.00526006 0.00931288 -0.00526006c0.157543,-0.087955 0.315086,-0.176427 0.471249,-0.266624 0.474957,-0.382087 0.779092,-0.967764 0.779092,-1.62467 0,-1.15057 -0.933272,-2.08384 -2.08402,-2.08384 -0.0345784,0 -0.0687256,0.000862304 -0.102873,0.00250068 -0.223595,0.0487202 -0.446846,0.0988201 -0.671045,0.146247l-0.00155215 0.000517382c-7.1009,1.50231 -14.4633,2.29485 -22.0111,2.29485 -7.54775,0 -14.9098,-0.792544 -22.0107,-2.29468l-0.00163838 -0.000689843c-0.224285,-0.0474267 -0.447536,-0.0975266 -0.671304,-0.146247 -0.034061,-0.00163838 -0.0682945,-0.00250068 -0.102873,-0.00250068 -1.15083,0 -2.08402,0.933272 -2.08402,2.08384 0,0.656731 0.303962,1.24241 0.778661,1.62441 0.153231,0.0888173 0.307756,0.175306 0.462454,0.261796z"/>
 </g>
</svg>
