<?xml version="1.0" standalone="no"?>
<!DOCTYPE svg PUBLIC "-//W3C//DTD SVG 1.1//EN" "http://www.w3.org/Graphics/SVG/1.1/DTD/svg11.dtd" >
<!--
2013-9-30: Created.
-->
<svg>
<metadata>
Created by iconfont
</metadata>
<defs>

<font id="iconfont" horiz-adv-x="1024" >
  <font-face
    font-family="iconfont"
    font-weight="500"
    font-stretch="normal"
    units-per-em="1024"
    ascent="896"
    descent="-128"
  />
    <missing-glyph />
    
    <glyph glyph-name="work" unicode="&#58892;" d="M0 896h1024v-1024H0V896z m585.142857-585.142857v-219.428572h219.428572V310.85714299999995H585.142857z m0 365.714286v-219.428572h219.428572V676.571429H585.142857zM219.428571 310.85714299999995v-219.428572h219.428572V310.85714299999995H219.428571z m0 365.714286v-219.428572h219.428572V676.571429H219.428571z"  horiz-adv-x="1024" />

    
    <glyph glyph-name="xuanzhong" unicode="&#58914;" d="M77.82912 477.9008l296.6528-250.368s16.384-9.0112 36.864 0L1141.66272 893.952s104.0384 24.1664 84.7872-96.5632c-70.4512-78.2336-788.48-833.8432-788.48-833.8432s-47.104-28.9792-92.16 0C300.85632 12.8 0.20992 372.8384 0.20992 372.8384s-8.192 87.04 77.7216 105.0624z"  horiz-adv-x="1228" />

    
    <glyph glyph-name="wenjian" unicode="&#58915;" d="M666.048 731.264h393.664c85.568 0 154.88-67.84 154.88-151.552v-555.584c0-83.712-69.312-151.552-154.88-151.552H156.288c-85.568 0-154.88 67.84-154.88 151.552V794.368C1.408 850.176 47.616 895.424 104.64 895.424h400.512c35.84 0 69.12-18.24 87.936-48.064l72.96-116.096z m393.024-782.336c42.752 0 77.44 33.92 77.44 75.712V580.288c0 41.856-34.688 75.776-77.44 75.776H79.488v-631.424c0-41.792 34.688-75.712 77.44-75.712h902.144zM537.984 806.912a25.92 25.92 0 0 1-22.4 12.736h-410.88a25.536 25.536 0 0 1-25.856-25.28v-61.568l503.36-1.536-44.16 75.648z"  horiz-adv-x="1216" />

    
    <glyph glyph-name="xingbiao" unicode="&#58916;" d="M220.928-82.17600000000004a68.992 68.992 0 0 1 73.344-4.096l217.472 120.96 217.536-120.96a69.312 69.312 0 0 1 73.344 4.096c21.632 15.36 32.64 41.792 28.352 68.16l-42.368 261.312 182.848 188.48a69.76 69.76 0 0 1-39.104 117.376l-249.472 38.336-108.416 232.32a69.12 69.12 0 0 1-125.376 0l-108.416-232.32-249.472-38.336a69.76 69.76 0 0 1-39.04-117.376l182.784-188.48-42.432-261.312c-4.288-26.368 6.784-52.8 28.416-68.16zM90.752 483.84l248.64 38.144 43.776 6.72 19.2 41.088 109.44 234.24 109.376-234.24 19.2-41.088 43.776-6.72 248.64-38.144-181.376-186.688-30.464-31.36 7.104-43.776 42.368-260.864-219.136 121.6-39.552 22.016-39.616-21.952-219.136-121.728 42.368 260.928 7.104 43.776-30.464 31.36L90.752 483.84z"  horiz-adv-x="1080" />

    
    <glyph glyph-name="yunpan" unicode="&#58917;" d="M1501.866667 249.4464c0 208.008533-167.936 377.309867-374.442667 377.309867-15.018667 0-29.832533-1.160533-44.373333-2.8672C1028.9152 783.906133 877.704533 896 706.696533 896 487.560533 896 309.179733 716.322133 309.179733 495.274667 138.6496 495.274667 0 355.464533 0 183.637333 0 11.946667 138.6496-128 309.248-128h839.2704v1.092267c196.608 11.0592 353.348267 175.445333 353.348267 376.354133z m-374.442667-288.426667H309.248c-121.719467 0-220.842667 99.874133-220.842667 222.6176s99.1232 222.6176 220.842667 222.6176h88.337067V495.274667c0 171.8272 138.717867 311.7056 309.248 311.7056 130.389333 0 245.623467-83.968 289.655466-204.526934a377.4464 377.4464 0 0 1-243.370666-353.006933h88.337066c0 158.9248 128.341333 288.221867 286.037334 288.221867 157.696 0 286.1056-129.297067 286.1056-288.221867 0-159.061333-128.341333-288.426667-286.037334-288.426667z"  horiz-adv-x="1501" />

    
    <glyph glyph-name="dulipindao" unicode="&#58918;" d="M0.170667 640.170667h255.658666V895.772444H0.170667v-255.601777z m383.431111-766.805334h255.601778v255.658667H383.601778v-255.658667z m-383.431111 0h255.658666v255.658667H0.170667v-255.658667z m0 383.431111h255.658666V512.341333H0.170667v-255.658666z m383.431111 0h255.601778V512.341333H383.601778v-255.658666z m383.431111 383.374223h255.601778V895.772444h-255.658667v-255.601777z m-383.431111 0h255.601778V895.772444H383.601778v-255.601777z m383.431111-383.431111h255.601778V512.398222h-255.658667v-255.658666z m0-383.374223h255.601778v255.658667h-255.658667v-255.658667z"  horiz-adv-x="1024" />

    
    <glyph glyph-name="gengduocaozuo" unicode="&#58919;" d="M512 630.4a128 128 0 1 1 0 256 128 128 0 0 1 0-256zM512 379.2m-128 0a128 128 0 1 1 256 0 128 128 0 1 1-256 0ZM512 0m-128 0a128 128 0 1 1 256 0 128 128 0 1 1-256 0Z"  horiz-adv-x="1024" />

    
    <glyph glyph-name="wodekehu" unicode="&#58920;" d="M988.398933-40.891733000000045c-5.256533 171.008-120.149333 317.166933-283.306666 382.907733a277.572267 277.572267 0 0 1-15.36 6.144c85.4016 53.725867 141.7216 144.9984 141.7216 248.695467C831.453867 762.0608 688.64 896 512.443733 896 336.315733 896 193.501867 762.0608 193.501867 596.855467c0-103.492267 56.046933-194.56 141.175466-248.354134-173.124267-62.532267-296.3456-214.2208-300.509866-392.465066a32.768 32.768 0 0 1-0.4096-5.188267v-43.2128c0-19.6608 17.6128-35.6352 39.389866-35.6352 21.7088 0 39.389867 15.9744 39.389867 35.6352v43.2128a32.5632 32.5632 0 0 1-0.887467 7.3728c6.690133 194.7648 183.022933 350.8224 399.701334 350.8224 217.4976 0 394.513067-157.354667 399.7696-353.211733a32.426667 32.426667 0 0 1-0.4096-4.983467v-22.050133a355.328 355.328 0 0 0-0.341334-5.7344h0.341334v-15.428267c0-19.6608 17.681067-35.6352 39.389866-35.6352 21.777067 0 39.389867 15.9744 39.389867 35.6352v43.2128a32.5632 32.5632 0 0 1-1.092267 8.260267zM269.550933 596.855467c0 125.815467 108.7488 227.805867 242.8928 227.805866 134.212267 0 242.961067-101.9904 242.961067-227.805866 0-125.815467-108.7488-227.805867-242.961067-227.805867-134.144 0-242.8928 101.9904-242.8928 227.805867z"  horiz-adv-x="1024" />

    
    <glyph glyph-name="xiaoxi" unicode="&#58921;" d="M257.1264 498.2272c0-33.1776 26.112-60.0576 58.4192-60.0576 32.256 0 58.4192 26.88 58.4192 60.0576s-26.112 60.1088-58.4192 60.1088c-32.256 0-58.4192-26.9312-58.4192-60.1088zM490.8544 498.2272c0-33.1776 26.112-60.0576 58.4192-60.0576 32.256 0 58.4704 26.88 58.4704 60.0576s-26.1632 60.1088-58.4704 60.1088c-32.256 0-58.4192-26.9312-58.4192-60.1088zM724.5824 498.2272c0-33.1776 26.1632-60.0576 58.4192-60.0576s58.4704 26.88 58.4704 60.0576-26.1632 60.1088-58.4704 60.1088c-32.256 0-58.368-26.9312-58.368-60.1088zM934.912 894.8224H140.288C63.0784 894.8224 0 829.9008 0 750.592v-504.7296c0-79.3088 63.1296-144.1792 140.288-144.1792h128.512c18.688 0 35.072 16.8448 35.072 36.0448 0 19.2512-16.384 36.0448-35.072 36.0448H140.288c-39.7824 0-70.144 31.232-70.144 72.0896V750.592c0 40.8576 30.3616 72.0896 70.144 72.0896h794.624c39.7824 0 70.144-31.232 70.144-72.0896v-504.7296c0-40.8576-30.3616-72.0896-70.144-72.0896h-352.9216l-231.424-237.9264a35.5328 35.5328 0 0 1 0-50.4832c7.0656-7.168 16.384-9.6256 25.7536-9.6256s18.688 2.4064 25.7024 9.6256l212.736 218.7264h320.2048c77.1072 0 140.2368 64.8704 140.2368 144.1792V752.9984c0 79.36-63.1296 141.824-140.288 141.824z"  horiz-adv-x="1075" />

    
    <glyph glyph-name="juxing" unicode="&#58922;" d="M0 896m98.382549 0l1278.973132 0q98.382549 0 98.382548-98.382549l0-541.104017q0-98.382549-98.382548-98.382549l-1278.973132 0q-98.382549 0-98.382549 98.382549l0 541.104017q0 98.382549 98.382549 98.382549Z"  horiz-adv-x="2048" />

    
    <glyph glyph-name="zhuye" unicode="&#58923;" d="M735.84 416.608L554.144 605.76a58.464 58.464 0 0 1-42.56 18.208c-16.16 0-31.264-6.464-42.56-18.24L287.36 416.64c-18.752-19.552-16.32-36.416-13.248-43.456 2.24-5.024 9.696-18.752 31.168-18.752h26.624v-145.536c0-33.056 23.68-64.192 57.44-64.192h77.312v154.048c0 16.512-2.496 25.728 14.368 25.728h61.12c16.864 0 14.336-9.216 14.336-25.728v-154.048h77.344c33.696 0 57.44 31.104 57.44 64.192v145.536h26.624c21.44 0 28.928 13.76 31.104 18.752 3.136 7.04 5.568 23.904-13.184 43.456h0.032z m-17.92-32.288h-56.608v-175.488c0-16.512-10.624-34.208-27.488-34.208h-47.36v124.096c0 33.024-10.624 55.648-44.32 55.648h-61.12c-33.728 0-44.288-22.624-44.288-55.68v-124.064h-47.392c-16.864 0-27.52 17.696-27.52 34.24V384.32H305.28c-0.512 0-1.024 2.08-1.44 2.112 1.024 1.824 2.816 6.4 5.76 9.472l181.76 189.088a28.8 28.8 0 0 0 20.48 9.024c7.424 0 14.624-3.392 20.032-9.024l181.696-189.12c2.976-3.04 4.768-7.68 5.792-9.44-0.448 0-0.96-2.112-1.44-2.112z"  horiz-adv-x="1024" />

    
    <glyph glyph-name="tongxunlu" unicode="&#58925;" d="M124.586667-127.089778H124.586667c-33.678222 0-61.041778 8.760889-83.626667 26.908445a105.130667 105.130667 0 0 0-40.106667 80.611555L0.568889-14.791111c-0.682667 18.033778-1.479111 38.570667 4.721778 59.733333 12.629333 43.121778 40.391111 74.865778 82.375111 94.378667 60.529778 28.046222 121.400889 55.523556 182.158222 82.944l6.257778 2.844444c7.850667 3.527111 15.815111 6.656 23.779555 9.784889 8.362667 3.356444 16.725333 6.599111 24.860445 10.467556a47.445333 47.445333 0 0 1 11.491555 6.542222c-0.113778 0 1.137778 3.811556 0.682667 18.773333a45.681778 45.681778 0 0 1-7.338667 21.617778l-10.126222 16.952889c-17.123556 28.728889-34.816 58.368-51.2 88.519111a401.92 401.92 0 0 0-38.4 102.912c-6.428444 28.558222-7.964444 59.676444-4.664889 95.118222a387.413333 387.413333 0 0 0 28.842667 115.598223C286.606222 787.797333 332.856889 839.793778 395.434667 870.286222c79.758222 38.798222 161.336889 32.142222 236.885333-19.456 40.732444-27.875556 72.817778-66.161778 98.076444-117.077333a389.575111 389.575111 0 0 0 40.561778-185.856c-1.251556-43.975111-15.928889-82.887111-28.672-111.957333-15.36-35.100444-34.929778-67.185778-53.646222-97.052445-3.242667-5.233778-6.656-10.467556-10.012444-15.644444-7.736889-11.832889-15.018667-23.04-20.935112-34.531556-6.712889-13.141333-9.159111-26.055111-7.224888-38.4 11.946667-10.183111 27.591111-16.896 42.666666-22.926222 26.282667-10.638222 52.622222-21.048889 78.961778-31.573333 43.804444-17.408 87.552-34.816 131.128889-52.736 48.241778-19.797333 79.473778-56.775111 90.282667-106.951112 5.461333-24.860444 5.461333-51.029333 0-75.548444-6.826667-30.72-27.477333-70.087111-86.584889-83.968-10.353778-2.446222-21.617778-3.527111-35.726223-3.527111-78.222222-0.113778-156.444444-0.170667-234.723555-0.170667H124.643556z m373.76 952.888889c-24.234667 0-49.265778-6.257778-74.296889-18.773333-47.104-23.438222-82.375111-64.625778-107.918222-125.838222A324.551111 324.551111 0 0 1 292.977778 585.955556c-2.673778-28.672-1.592889-52.224 3.242666-74.126223 6.712889-30.435556 17.237333-59.164444 31.175112-85.504 15.075556-28.444444 31.800889-57.059556 47.900444-84.650666l9.784889-16.725334c9.784889-16.725333 14.791111-33.223111 15.36-50.289777 1.422222-44.145778-9.443556-63.886222-44.657778-81.009778-8.931556-4.380444-18.204444-8.135111-27.420444-11.832889-6.826667-2.787556-13.653333-5.518222-20.309334-8.533333l-6.030222-2.844445c-58.140444-26.851556-116.394667-53.646222-174.307555-81.123555-25.031111-11.889778-40.732444-29.923556-48.014223-55.239112-3.242667-11.377778-2.730667-24.860444-2.161777-39.253333l0.170666-4.892444a43.235556 43.235556 0 0 1 16.725334-34.190223c11.377778-9.329778 25.713778-13.653333 45.056-13.653333v-29.923555l0.056888 29.866666 163.100445 0.056889h328.305778c75.093333 0 150.186667 0 225.28 0.113778 9.102222 0 16.042667 0.625778 21.617777 1.991111 29.980444 7.168 37.262222 23.779556 40.277334 37.489778 3.356444 15.36 3.356444 31.971556 0 47.900444-6.371556 29.923556-23.438222 50.346667-52.337778 62.407111-41.585778 17.464889-83.456 34.531556-125.269333 51.484445-25.372444 10.296889-50.688 20.650667-76.003556 31.061333-18.432 7.566222-39.594667 17.009778-57.912889 33.336889a58.311111 58.311111 0 0 0-17.92 31.857778 123.847111 123.847111 0 0 0 12.174222 78.392889c7.054222 14.051556 15.246222 26.851556 23.153778 39.253333l9.102222 14.449778c16.782222 27.420444 34.247111 56.718222 47.388445 87.381333 10.012444 23.438222 21.617778 54.556444 22.528 87.153778a327.68 327.68 0 0 1-32.711111 153.6c-19.740444 40.561778-44.259556 70.712889-74.979556 92.216889-31.971556 22.300444-64.625778 33.621333-96.995555 33.621333z m527.928889-271.758222c42.723556 0 85.447111 0.056889 128.113777-0.113778 5.802667 0 11.832889-0.455111 17.408-2.048 14.620444-4.152889 22.300444-16.213333 21.845334-32.881778a31.118222 31.118222 0 0 0-25.144889-31.175111c-5.290667-1.137778-10.808889-1.706667-16.270222-1.706666-84.764444 0-169.528889-0.113778-254.350223 0.113777-6.599111 0-13.425778 0.682667-19.626666 2.787556-15.075556 5.12-21.845333 17.294222-20.650667 34.929778a30.492444 30.492444 0 0 0 24.917333 28.558222c5.12 1.080889 10.467556 1.422222 15.701334 1.479111 42.666667 0.113778 85.390222 0 128.113777 0z m27.249777-224.995556c-33.28 0-66.56-0.398222-99.783111 0.227556a62.122667 62.122667 0 0 0-24.405333 5.290667c-12.686222 5.916444-17.863111 20.252444-15.018667 36.522666 2.389333 13.312 12.970667 23.096889 27.704889 25.315556 4.266667 0.568889 8.533333 0.910222 12.856889 0.910222 66.56 0.056889 133.063111 0.113778 199.623111-0.056889 6.371556 0 12.970667-0.739556 19.057778-2.616889 13.084444-3.982222 20.48-16.497778 20.081778-31.857778-0.398222-15.985778-7.964444-27.306667-21.731556-31.288888-5.802667-1.706667-11.946667-2.332444-17.976889-2.389334-33.507556-0.170667-66.958222-0.056889-100.408889-0.056889z m47.217778-147.797333c-8.988444 0-44.999111-0.056889-81.066667 0.056889-10.353778 0-20.48 1.706667-28.444444 9.386667-10.410667 9.898667-12.231111 22.528-8.248889 36.067555 4.039111 14.108444 14.677333 19.911111 27.704889 22.016 3.982222 0.568889 8.192 0.739556 12.288 0.739556 43.463111 0 86.926222 0.170667 130.389333-0.113778 7.111111 0 14.563556-1.024 21.276445-3.356445 12.515556-4.266667 18.830222-15.189333 19.000889-30.037333 0.170667-14.620444-6.144-26.112-18.261334-30.606222a65.991111 65.991111 0 0 0-21.162666-3.982222c-22.357333-0.455111-31.118222-0.170667-53.475556-0.170667z"  horiz-adv-x="1194" />

    
    <glyph glyph-name="bianji" unicode="&#58926;" d="M80.128-124.288a46.72 46.72 0 0 0-31.04 12.736c-12.416 12.736-18.56 25.472-12.416 38.208 43.456 280.192 68.224 305.664 74.432 312L675.456 862.784c37.184 38.208 99.2 44.544 136.448 12.736l142.592-133.76c18.624-19.072 31.04-38.208 31.04-63.68s-6.208-57.28-24.832-76.416L390.208-22.4c-6.208-6.4-24.832-31.872-303.936-101.888H80.128zM749.888 830.912a46.72 46.72 0 0 1-31.04-12.736l-570.56-617.728c-6.144-12.736-30.976-95.488-55.808-254.72 155.072 38.208 235.712 70.08 254.272 76.416l570.56 617.728c6.208 6.4 12.416 19.136 12.416 25.472 0 6.4 0 12.8-12.416 19.136l-142.656 133.76c-6.208 12.672-12.416 12.672-24.768 12.672zM607.232 726.4l225.92-218.176-42.56-46.4-225.92 218.176z"  horiz-adv-x="1024" />

    
    <glyph glyph-name="gongzuo" unicode="&#58927;" d="M1047.882752 874.238497a12.748781 12.748781 0 0 1-0.255999 1.535997l-0.256 1.023999c-0.1024 0.563199-0.3072 1.126398-0.511999 1.689597a24.729563 24.729563 0 0 1-14.233579 15.411177 19.71197 19.71197 0 0 1-5.939191 1.740798 14.540778 14.540778 0 0 1-2.047997 0.255999C1024.023588 895.998464 1023.357989 895.998464 1022.58999 895.998464a23.244765 23.244765 0 0 1-7.884788-1.279998 22.937566 22.937566 0 0 1-2.559996-0.972799c-0.511999-0.1536-1.023998-0.409599-1.484798-0.614399L39.346665 459.007119a25.497562 25.497562 0 1 1-3.583994-44.697532L345.215006 211.455491l41.420738-281.189978a25.548762 25.548762 0 0 1 44.851133-12.851181l129.535806 152.473371 293.631559-192.511711a25.702361 25.702361 0 0 1 24.371164-1.945597 25.497562 25.497562 0 0 1 14.950377 19.353571L1047.677953 865.53451c0 0.358399 0.1024 0.819199 0.204799 1.279998a21.247968 21.247968 0 0 1-0.051199 7.423989zM903.806169 789.297824L365.541376 259.225019l-262.655606 172.185342 800.920399 357.887463z m-474.776888-795.646806l-26.57276 180.274929 115.455826-75.775886-88.883066-104.550243z m420.556169-51.711923l-278.527582 182.578926-2.099197 1.331198-159.590161 104.652643L985.162847 797.643412 849.53425-58.112105z"  horiz-adv-x="1048" />

    
    <glyph glyph-name="sousuo" unicode="&#58928;" d="M505.856-51.846737c-262.629053 0-478.585263 211.698526-478.585263 473.465263 0 261.820632 215.956211 473.465263 478.585263 473.465263 262.682947 0 478.585263-211.644632 478.585263-473.465263 0-261.766737-212.992-473.465263-478.585263-473.465263z m0 888.454737c-230.507789 0-420.217263-186.583579-420.217263-417.738105 0-231.208421 189.709474-417.792 420.217263-417.792 230.561684 0 420.271158 186.583579 420.271158 417.792 0 231.154526-186.799158 417.684211-420.271158 417.68421zM966.979368-124.227368a27.109053 27.109053 0 0 0-20.48 8.353684l-169.229473 167.073684a26.085053 26.085053 0 0 0 0 39.019789 29.103158 29.103158 0 0 0 40.85221 0l169.229474-167.073684a26.085053 26.085053 0 0 0 0-39.019789 32.336842 32.336842 0 0 0-20.372211-8.353684z"  horiz-adv-x="1024" />

    
    <glyph glyph-name="qiehuan" unicode="&#58929;" d=""  horiz-adv-x="1489" />

    
    <glyph glyph-name="shijian" unicode="&#58930;" d="M511.36192-127.36a508.16 508.16 0 0 0-361.6 149.696A508.224 508.224 0 0 0 0.00192 384c0 136.64 53.184 265.088 149.76 361.664A508.032 508.032 0 0 0 511.36192 895.424c136.64 0 265.088-53.12 361.728-149.76 199.36-199.424 199.36-523.84 0-723.2a508.48 508.48 0 0 0-361.792-149.888z m0 962.944A448.64 448.64 0 0 1 192.19392 703.36 448.576 448.576 0 0 1 59.84192 384a448.64 448.64 0 0 1 132.224-319.36 448.64 448.64 0 0 1 319.232-132.224 448.896 448.896 0 0 1 319.488 132.352c176 176 176 462.528 0 638.592A448.768 448.768 0 0 1 511.36192 835.584z m208.128-654.208a36.864 36.864 0 0 0-18.56 5.248L523.96992 293.888a221.44 221.44 0 0 1-3.072 1.728c-5.312 3.008-12.544 7.04-15.104 10.88l-0.448 0.64-0.768 0.448c-25.472 14.656-30.848 26.304-30.848 33.536V641.536a39.296 39.296 0 0 0 78.592 0v-282.88l178.048-102.976 1.792-1.024a46.784 46.784 0 0 0 20.48-24.128 34.56 34.56 0 0 0-2.048-29.504c-7.232-12.48-18.56-19.648-31.04-19.648z"  horiz-adv-x="1024" />

    
    <glyph glyph-name="tianjiakehu" unicode="&#58931;" d="M512 444.689067c101.034667 0 183.773867 84.650667 183.773867 188.074666S613.102933 820.770133 512 820.770133c-101.034667 0-183.773867-84.650667-183.773867-188.0064 0-103.492267 82.670933-188.074667 183.773867-188.074666z m257.365333-338.466134V218.999467c0 20.6848 16.520533 37.614933 36.727467 37.614933 20.206933 0 36.727467-16.930133 36.727467-37.546667v-112.8448h110.318933c20.206933 0 36.727467-16.930133 36.727467-37.614933 0-20.6848-16.520533-37.614933-36.727467-37.614933h-110.318933v-112.8448c0-20.6848-16.520533-37.614933-36.727467-37.614934a37.2736 37.2736 0 0 0-36.795733 37.546667V31.061333H659.0464a37.2736 37.2736 0 0 0-36.795733 37.546667c0 20.753067 16.5888 37.6832 36.795733 37.6832h110.250667z m-18.432 287.675734a38.912 38.912 0 0 0 18.432-31.9488c0-20.6848-16.5888-37.614933-36.864-37.614934a30.583467 30.583467 0 0 0-18.295466 5.666134c-49.629867 26.282667-104.789333 39.458133-165.4784 39.458133H475.272533c-202.205867 0-367.616-169.301333-367.616-376.149333 0-20.616533 16.520533-37.546667 36.727467-37.546667h441.1392c20.206933 0 36.727467-16.930133 36.727467-37.614933 0-20.6848-16.520533-37.614933-36.727467-37.614934H144.384C83.7632-119.466667 34.133333-68.676267 34.133333-6.621867c0 204.936533 134.144 377.992533 317.986134 432.469334a267.332267 267.332267 0 0 0-97.416534 206.848C254.634667 777.6256 370.4832 896 512 896c141.5168 0 257.365333-118.442667 257.365333-263.236267a270.267733 270.267733 0 0 0-97.4848-206.848c27.579733-7.509333 55.159467-18.8416 79.0528-32.017066z"  horiz-adv-x="1024" />

    
    <glyph glyph-name="rili" unicode="&#58932;" d="M512.161684-127.407158a508.173474 508.173474 0 0 0-361.633684 149.719579A508.227368 508.227368 0 0 0 0.916211 384c0 136.677053 53.194105 265.108211 149.827368 361.687579A508.065684 508.065684 0 0 0 512.215579 895.461053c136.569263 0 265.000421-53.194105 361.633684-149.773474 199.410526-199.410526 199.410526-523.856842 0-723.267368a508.496842 508.496842 0 0 0-361.741474-149.827369zM512.269474 835.637895A448.673684 448.673684 0 0 1 192.943158 703.380211 448.565895 448.565895 0 0 1 60.685474 384c0-120.670316 46.888421-234.064842 132.203789-319.380211a448.673684 448.673684 0 0 1 319.272421-132.203789 448.889263 448.889263 0 0 1 319.434105 132.311579c176.074105 176.074105 176.074105 462.524632 0 638.652632a448.781474 448.781474 0 0 1-319.326315 132.203789z m208.033684-654.228211a36.917895 36.917895 0 0 0-18.485895 5.281684l-176.990316 107.250527a221.453474 221.453474 0 0 1-3.072 1.724631c-5.335579 2.964211-12.611368 7.006316-15.090526 10.832842l-0.538947 0.754527-0.700632 0.431158c-25.492211 14.551579-30.827789 26.246737-30.827789 33.468631V641.616842a39.343158 39.343158 0 0 0 78.524631 0v-282.947368l178.068211-102.938948 1.832421-1.077894c9.377684-5.389474 16.815158-14.174316 20.426105-24.090948a34.492632 34.492632 0 0 0-2.048-29.480421c-7.168-12.503579-18.485895-19.671579-31.043368-19.671579z"  horiz-adv-x="1024" />

    
    <glyph glyph-name="qianzaikehu" unicode="&#58933;" d="M121.088-97.088H120.96c-32.704 0-59.264 8.576-81.216 26.176a102.08 102.08 0 0 0-39.04 78.272l-0.128 4.672c-0.64 17.536-1.408 37.44 4.608 58.048 12.288 41.92 39.232 72.704 80 91.648 58.88 27.264 117.952 53.952 177.024 80.64l6.08 2.688c7.616 3.456 15.36 6.464 23.04 9.536 8.128 3.2 16.32 6.4 24.192 10.176a46.08 46.08 0 0 1 11.2 6.4c-0.192 0 1.088 3.648 0.64 18.176a44.352 44.352 0 0 1-7.168 20.992l-9.856 16.512c-16.64 27.84-33.856 56.64-49.664 85.952a390.4 390.4 0 0 0-37.312 99.968 291.2 291.2 0 0 0-4.544 92.416 376.32 376.32 0 0 0 28.032 112.256C278.4 791.68 323.328 842.24 384.128 871.808c77.44 37.76 156.736 31.232 230.144-18.88 39.552-27.072 70.72-64.256 95.232-113.728 27.968-56.32 41.216-117.12 39.424-180.48-1.216-42.752-15.552-80.64-27.84-108.8-14.912-34.112-33.92-65.28-52.096-94.336-3.2-5.12-6.464-10.112-9.728-15.168-7.552-11.52-14.592-22.4-20.352-33.6a60.352 60.352 0 0 1-7.04-37.248c11.648-9.856 26.88-16.448 41.408-22.272l76.8-30.72c42.496-16.896 84.992-33.792 127.36-51.2 46.848-19.2 77.184-55.104 87.68-103.808a172.16 172.16 0 0 0 0-73.472c-6.656-29.76-26.688-68.096-84.096-81.536a151.04 151.04 0 0 0-34.752-3.456c-75.968-0.128-152-0.128-227.968-0.128H121.088zM484.096 828.608c-23.552 0-47.808-6.144-72.128-18.24-45.824-22.784-80.064-62.72-104.832-122.24a315.328 315.328 0 0 1-22.528-92.544c-2.56-27.776-1.536-50.688 3.2-72 6.464-29.504 16.64-57.472 30.272-83.072 14.592-27.648 30.848-55.36 46.528-82.176l9.472-16.256c9.472-16.256 14.4-32.256 14.912-48.832 1.408-42.88-9.152-62.08-43.328-78.72a425.408 425.408 0 0 0-26.688-11.52c-6.592-2.688-13.248-5.312-19.712-8.32L293.44 192c-56.576-26.112-113.088-52.16-169.408-78.848-24.32-11.52-39.552-29.056-46.592-53.696-3.136-10.944-2.624-24.128-2.112-38.08l0.128-4.736a42.048 42.048 0 0 1 16.256-33.28c11.072-8.96 24.96-13.248 43.776-13.248v-28.992l0.064 28.992h477.376c72.96 0 145.92 0 218.88 0.128 8.832 0 15.552 0.64 20.992 1.92 29.12 7.04 36.16 23.168 39.04 36.48a111.36 111.36 0 0 1 0 46.528c-6.144 28.992-22.72 48.832-50.752 60.608-40.448 16.96-81.088 33.536-121.728 50.048-24.64 9.984-49.28 19.968-73.856 30.08-17.92 7.36-38.4 16.576-56.192 32.448a56.64 56.64 0 0 0-17.472 30.912 120.32 120.32 0 0 0 11.84 76.16c6.912 13.632 14.848 26.112 22.528 38.144 2.944 4.672 5.888 9.28 8.768 14.08 16.32 26.56 33.28 55.04 46.08 84.864 9.728 22.784 21.056 52.992 21.888 84.672a318.272 318.272 0 0 1-31.808 149.12c-19.136 39.488-42.944 68.8-72.832 89.6-31.04 21.76-62.72 32.704-94.208 32.704zM535.872 64h-0.064c-23.808 0-43.072 6.592-59.008 20.224a80.832 80.832 0 0 0-28.352 60.544l-0.128 3.584c-0.512 13.568-1.024 28.992 3.328 44.928 8.96 32.384 28.48 56.192 58.176 70.848 42.752 21.12 85.632 41.728 128.576 62.336l4.48 2.112c5.44 2.688 11.072 5.056 16.64 7.36 5.952 2.56 11.904 4.992 17.6 7.872a33.152 33.152 0 0 1 8.128 4.928c-0.064 0 0.832 2.88 0.512 14.08a35.84 35.84 0 0 1-5.184 16.256l-7.168 12.8c-12.16 21.504-24.64 43.776-36.16 66.432a314.304 314.304 0 0 0-27.072 77.312 239.488 239.488 0 0 0-3.328 71.488c2.752 30.592 9.6 59.776 20.352 86.848 23.04 57.408 55.68 96.448 99.84 119.36 56.256 29.184 113.792 24.128 167.168-14.656 28.736-20.928 51.392-49.664 69.184-87.936a308.48 308.48 0 0 0 28.608-139.584c-0.832-33.024-11.264-62.336-20.224-84.16-10.816-26.368-24.64-50.432-37.76-72.96l-7.168-11.648c-5.44-8.96-10.56-17.344-14.72-25.984a49.28 49.28 0 0 1-5.12-28.8c8.448-7.68 19.456-12.8 30.08-17.28l55.744-23.68c30.912-13.12 61.824-26.24 92.544-39.68 34.048-14.848 56.128-42.624 63.744-80.256 3.84-18.752 3.84-38.4 0-56.832-4.864-23.04-19.392-52.608-61.12-63.04a103.36 103.36 0 0 0-25.216-2.688L897.152 64H535.872z m263.744 704c-16.512 0-33.6-4.864-50.688-14.464-32.192-18.112-56.32-49.792-73.728-96.96a276.8 276.8 0 0 1-15.808-73.408c-1.792-22.08-1.088-40.256 2.24-57.152 4.608-23.424 11.712-45.568 21.248-65.856 10.304-21.952 21.76-43.968 32.768-65.216l6.656-12.864c6.656-12.928 10.112-25.6 10.496-38.784 0.96-34.048-6.4-49.216-30.528-62.464a282.24 282.24 0 0 0-18.688-9.088c-4.672-2.112-9.344-4.224-13.888-6.592l-4.096-2.112c-39.744-20.736-79.488-41.408-119.04-62.592a63.36 63.36 0 0 1-32.832-42.56c-2.176-8.704-1.856-19.136-1.472-30.208l0.128-3.776a35.008 35.008 0 0 1 11.456-26.368c7.744-7.168 17.536-10.496 30.72-10.496V64l0.064 23.04h335.552l153.856 0.064a58.048 58.048 0 0 1 14.784 1.536c20.48 5.568 25.408 18.368 27.52 28.928a99.456 99.456 0 0 1-0.064 36.864c-4.352 23.04-16 38.784-35.712 48.128-28.416 13.44-56.96 26.56-85.568 39.68-17.28 7.936-34.56 15.872-51.84 23.936a129.984 129.984 0 0 0-39.552 25.664 46.72 46.72 0 0 0-12.288 24.512 106.24 106.24 0 0 0 8.32 60.416c4.864 10.88 10.432 20.736 15.808 30.272l6.208 11.136a556.8 556.8 0 0 1 32.384 67.328c6.848 18.048 14.72 42.048 15.36 67.2a280.064 280.064 0 0 1-22.336 118.336c-13.44 31.232-30.208 54.464-51.2 71.04C844.032 759.296 821.76 768 799.616 768z"  horiz-adv-x="1152" />

    
    <glyph glyph-name="daiban" unicode="&#58924;" d="M913.868343 701.285985A511.078144 511.078144 0 0 1 511.999744 895.999488C229.222285 895.999488 0 666.777203 0 383.99974399999996s229.222285-511.999744 511.999744-511.999744 511.999744 229.222285 511.999744 511.999744c0 15.257592-0.6656 30.412785-1.996799 45.311977l-59.80157-21.759989a451.071774 451.071774 0 1 0-111.923144 270.591865l63.590368 23.142388zM451.788574 464.690904l160.66552-135.577533s8.857596-4.863998 19.96799 0l395.571002 360.95982s56.371172 13.158393 45.926377-52.223974c-38.195181-42.342379-427.110186-451.634974-427.110186-451.634974s-25.497587-15.769592-49.868775 0c-24.371188 26.623987-187.238306 221.593489-187.238307 221.593489s-4.454398 47.206376 42.086379 56.883172z"  horiz-adv-x="1024" />

    
    <glyph glyph-name="current-node" unicode="&#58934;" d="M91.428571 299.52a91.428571 91.428571 0 1 1 0 182.857143 91.428571 91.428571 0 0 1 0-182.857143zM960.950857 337.91999999999996a91.428571 91.428571 0 1 1 0 182.857143 91.428571 91.428571 0 0 1 0-182.857143zM688.274286 603.4285709999999a109.714286 109.714286 0 1 1 0 219.428572 109.714286 109.714286 0 0 1 0-219.428572zM395.702857-72.70399999999995a146.285714 146.285714 0 1 0 0 292.571429 146.285714 146.285714 0 0 0 0-292.571429z m-0.146286 65.828571a80.457143 80.457143 0 1 1 0 160.914286 80.457143 80.457143 0 0 1 0-160.914286zM750.006857 731.721143l-288.548571-591.725714-65.755429 32.182857 288.548572 591.579428 65.828571-32.036571zM280.722286 136.99657100000002L73.874286 343.91771400000005l51.712 51.712L332.434286 188.708571l-51.712-51.712zM931.693714 417.938286L724.845714 624.859429 776.557714 676.571429l206.848-206.848-51.712-51.785143z"  horiz-adv-x="1097" />

    
    <glyph glyph-name="daterange" unicode="&#58935;" d="M889.719467 593.578667l48.264533 39.799466-40.209067 42.939734-48.196266-39.7312c-81.988267 77.2096-191.2832 123.6992-307.2 130.594133V838.792533H664.234667V895.931733H359.492267v-57.1392h121.924266v-71.68C232.311467 752.4352 34.542933 557.806933 34.542933 320.512c0-246.852267 214.084267-447.6928 477.320534-447.6928s477.320533 200.840533 477.320533 447.6928a427.895467 427.895467 0 0 1-99.464533 273.066667z m-377.856-663.552c-229.649067 0-416.426667 175.104-416.426667 390.485333 0 215.313067 186.7776 390.485333 416.426667 390.485333 229.5808 0 416.426667-175.172267 416.426666-390.485333s-186.845867-390.485333-416.426666-390.485333zM481.348267 482.440533h60.962133v-323.857066h-60.962133z"  horiz-adv-x="1024" />

    
    <glyph glyph-name="exponent" unicode="&#58936;" d="M39.384615 896h183.768616v-186.210462H39.384615zM39.384615 513.181538h183.768616v-186.210461H39.384615zM420.076308 896h183.768615v-186.210462H420.076308zM420.076308 513.181538h183.768615v-186.210461H420.076308zM800.846769 896H984.615385v-186.210462H800.846769zM800.846769 513.181538H984.615385v-186.210461H800.846769zM39.384615 129.575385h183.768616v-186.210462H39.384615zM420.076308 129.575385h183.768615v-186.210462H420.076308zM800.846769 129.575385H984.615385v-186.210462H800.846769z"  horiz-adv-x="1024" />

    
    <glyph glyph-name="principal" unicode="&#58937;" d="M476.16 306.980571c-171.885714 0-311.588571 131.949714-311.588571 294.034286C164.571429 763.318857 304.274286 895.268571 476.16 895.268571c171.885714 0 311.588571-131.949714 311.588571-294.107428 0-162.157714-139.702857-294.107429-311.588571-294.107429z m0 531.456c-138.678857 0-251.538286-106.496-251.538286-237.348571 0-130.925714 112.859429-237.348571 251.538286-237.348571 138.678857 0 251.538286 106.496 251.538286 237.348571C727.698286 731.940571 614.838857 838.436571 476.16 838.436571zM930.230857-127.414857c-16.603429 0-30.061714 12.653714-30.061714 28.379428 0 218.404571-188.269714 396.068571-419.766857 396.068572C248.978286 296.96 60.708571 119.222857 60.708571-99.035429c0-15.725714-13.458286-28.379429-29.988571-28.379428-16.676571 0-30.134857 12.653714-30.134857 28.379428 0 249.636571 215.259429 452.754286 479.817143 452.754286 264.630857 0 479.890286-203.117714 479.890285-452.754286 0-15.725714-13.458286-28.379429-30.061714-28.379428zM818.614857 329.142857a29.696 29.696 0 0 0-29.549714 22.674286 28.086857 28.086857 0 0 0 17.846857 31.817143c86.308571 34.157714 142.482286 113.883429 142.336 202.24 0 104.009143-78.262857 194.413714-186.075429 214.966857a28.452571 28.452571 0 0 0-22.966857 33.353143 29.988571 29.988571 0 0 0 34.889143 22.235428C910.848 830.537143 1009.371429 716.8 1009.371429 585.874286c0.219429-111.177143-70.436571-211.602286-179.126858-254.537143a31.305143 31.305143 0 0 0-11.702857-2.194286zM1140.150857-95.085714c-16.603429 0-30.134857 12.726857-30.134857 28.379428 0.146286 157.769143-106.569143 297.984-265.142857 348.16a29.549714 29.549714 0 0 0-17.334857 14.262857 26.916571 26.916571 0 0 0-1.536 21.723429 28.891429 28.891429 0 0 0 15.067428 16.384 31.670857 31.670857 0 0 0 22.966857 1.462857c183.076571-57.929143 306.322286-219.867429 306.176-401.993143 0-15.725714-13.458286-28.379429-30.061714-28.379428z"  horiz-adv-x="1170" />

    
    <glyph glyph-name="to-top" unicode="&#58938;" d="M138.6496 807.253333h746.564267a27.306667 27.306667 0 1 1 0 54.613334H138.6496a27.2384 27.2384 0 0 1 0-54.613334zM560.469333 696.866133a66.491733 66.491733 0 0 1-48.469333 21.367467 66.3552 66.3552 0 0 1-48.469333-21.367467L118.5792 296.1408c-20.753067-22.391467-17.066667-41.847467-12.834133-51.2 4.096-9.557333 15.496533-25.463467 46.216533-25.463467H307.2c7.9872 0 14.472533-6.485333 14.472533-14.472533v-229.717333c0-38.161067 30.993067-69.154133 69.085867-69.154134h242.346667c38.161067 0 69.154133 31.061333 69.154133 69.2224v229.717334c0 7.918933 6.417067 14.336 14.336 14.404266h155.579733c30.446933 0 41.984 16.042667 46.148267 25.463467 4.096 9.557333 7.918933 28.808533-12.970667 51.2L560.469333 696.797867z m156.194134-422.7072c-38.0928 0-69.0176-31.061333-69.0176-69.154133v-229.717333a14.677333 14.677333 0 0 0-14.5408-14.404267H390.7584a14.472533 14.472533 0 0 0-14.404267 14.404267v229.717333c0 38.229333-30.993067 69.154133-69.085866 69.154133l-134.485334 0.068267L512 668.740267l339.080533-394.581334h-134.485333z"  horiz-adv-x="1024" />

    
    <glyph glyph-name="biaoqian" unicode="&#58943;" d="M78.769231 896h1002.968615a78.769231 78.769231 0 0 0 71.207385-45.056l172.032-363.756308a157.538462 157.538462 0 0 0 0-134.695384l-172.032-363.756308a78.769231 78.769231 0 0 0-71.207385-45.134769H78.769231a78.769231 78.769231 0 0 0-78.769231 78.769231V817.230769a78.769231 78.769231 0 0 0 78.769231 78.769231z m54.823384-78.769231a63.015385 63.015385 0 0 1-63.015384-63.015384v-671.901539a63.015385 63.015385 0 0 1 63.015384-63.015384h915.456a63.015385 63.015385 0 0 1 57.265231 36.706461l144.147692 314.131692a126.030769 126.030769 0 0 1-0.472615 106.259693l-143.438769 304.679384A63.015385 63.015385 0 0 1 1049.521231 817.230769H133.592615z"  horiz-adv-x="1389" />

    
    <glyph glyph-name="morentouxiang" unicode="&#58945;" d="M512 640m-256 0a256 256 0 1 1 512 0 256 256 0 1 1-512 0ZM23.272727 81.454545a488.727273 209.454545 0 1 1 977.454546 0 488.727273 209.454545 0 1 1-977.454546 0Z"  horiz-adv-x="1024" />

    
    <glyph glyph-name="hexinkehu" unicode="&#58946;" d="M613.306916-122.675207a30.037293 30.037293 0 0 0-21.845305 9.215988L7.37279 496.639167a25.668232 25.668232 0 0 0-2.047997 33.450622L268.287642 884.188517A29.90076 29.90076 0 0 0 292.385743 895.998635H935.252086a30.037293 30.037293 0 0 0 24.029835-11.810118l263.031116-354.098728c7.645856-10.239986 6.826658-24.098101-2.047997-33.450622l-585.181087-610.098386a30.242093 30.242093 0 0 0-21.845304-9.215988zM86.015885 495.888235l502.510264-529.202495a34.133288 34.133288 0 0 1 49.493267 0l503.329462 529.202495a34.133288 34.133288 0 0 1 2.730663 43.895408L929.99556 827.800326a34.133288 34.133288 0 0 1-27.30663 13.789848H324.675834A34.133288 34.133288 0 0 1 297.300937 827.732059L83.353489 539.64711a34.133288 34.133288 0 0 1 2.662396-43.827142z m527.154497-314.640647c-22.459703 0-44.578074 7.918923-61.439918 23.688501l-196.607737 210.32932a25.941299 25.941299 0 0 0 2.935462 38.502349 30.788226 30.788226 0 0 0 41.164745-2.730663l195.242407-209.032255c10.035187-9.215988 28.535429-9.215988 40.004213 1.433598l192.443477 206.301592a30.788226 30.788226 0 0 0 41.164745 2.730663 25.941299 25.941299 0 0 0 2.935463-38.502349l-194.013608-207.73519a93.661742 93.661742 0 0 0-63.829249-24.985566z"  horiz-adv-x="1228" />

    
    <glyph glyph-name="baobei" unicode="&#58947;" d="M772.794709 533.572267h-519.509333a31.675733 31.675733 0 1 0 0 63.2832h519.509333a31.675733 31.675733 0 1 0 0-63.2832z m0-208.0768h-519.509333a31.675733 31.675733 0 1 0 0 63.2832h519.509333a31.675733 31.675733 0 1 0 0-63.2832z m28.125867-452.744534a31.675733 31.675733 0 0 0-31.744 31.675734V224.256a31.675733 31.675733 0 0 0 63.488 0v-319.829333a31.675733 31.675733 0 0 0-31.744-31.675734zM956.841643 37.205333H644.999509a31.675733 31.675733 0 1 0 0 63.2832h311.978667a31.675733 31.675733 0 1 0 0-63.2832zM547.446443-112.981333H156.073643C88.762709-112.981333 33.876309-58.5728 33.876309 8.533333V773.9392C33.944576 840.977067 88.762709 895.522133 156.073643 895.522133h704.512c67.310933 0 122.0608-54.613333 122.0608-121.6512v-465.373866a31.675733 31.675733 0 0 0-63.488 0V773.802667a58.504533 58.504533 0 0 1-58.5728 58.368H156.073643a58.504533 58.504533 0 0 1-58.5728-58.368v-765.269334c0-32.221867 26.282667-58.368 58.5728-58.368h391.3728a31.675733 31.675733 0 1 0 0-63.2832z"  horiz-adv-x="1024" />

    
    <glyph glyph-name="shanchu" unicode="&#58950;" d="M585.255385 128.236308v401.723077c0 46.788923 73.255385 46.788923 73.255384 0v-401.723077c0-46.788923-73.255385-46.788923-73.255384 0z m-219.766154 0v401.723077c0 46.788923 73.255385 46.788923 73.255384 0v-401.723077c0-46.788923-73.255385-46.788923-73.255384 0z m622.513231 584.310154H805.021538V785.723077A109.489231 109.489231 0 0 1 696.32 895.133538H328.940308C268.288 895.212308 218.978462 846.139077 218.978462 785.723077v-73.097846H35.997538c-46.946462 0-46.946462-72.940308 0-72.940308h952.004924c46.946462 0 46.946462 72.940308 0 72.940308zM292.312615 785.723077c0 19.377231 17.171692 36.548923 36.627693 36.548923h367.300923c19.456 0 35.446154-14.887385 35.446154-36.548923v-73.097846H292.312615V785.723077z m476.002462-912.935385H255.684923c-60.652308 0-109.804308 48.994462-109.804308 109.489231V529.959385c0 21.740308 17.092923 36.548923 36.548923 36.548923 19.456 0 36.627692-14.808615 36.627693-36.548923V-17.723077c0-19.377231 17.171692-36.548923 36.627692-36.548923h512.630154a37.651692 37.651692 0 0 1 36.627692 36.548923v546.658462c0 47.891692 73.255385 47.891692 73.255385 0v-546.658462c0-60.494769-49.230769-109.489231-109.883077-109.489231z"  horiz-adv-x="1024" />

    
    <glyph glyph-name="qq" unicode="&#58952;" d="M171.739429-51.712C171.739429-93.696 245.76-128 336.969143-128s165.302857 34.304 165.302857 76.288-74.166857 76.288-165.302857 76.288c-91.136 0-165.302857-33.792-165.302857-76.288z m350.573714 0C522.24-93.696 596.406857-128 687.542857-128c91.574857 0 165.229714 34.304 165.229714 76.288s-74.166857 76.288-165.302857 76.288c-91.062857 0.512-165.156571-33.792-165.156571-76.288zM880.566857 389.12l-37.083428 118.784C842.971429 894.464 528.969143 896 512.512 896c-16.969143 0-330.459429-1.536-330.459429-388.096L144.457143 389.12S18.285714 231.424 103.277714 94.208c9.801143-6.656 10.24-30.72 61.732572 77.312 0 0 68.973714-241.664 345.453714-243.712h3.072c276.48 2.048 345.380571 243.712 345.380571 243.712 51.492571-108.032 52.516571-86.016 61.805715-77.312 85.942857 137.216-40.228571 294.912-40.228572 294.912zM526.921143 641.536c0-51.712 29.842286-93.696 66.925714-93.696 37.083429 0 66.925714 41.984 66.925714 93.696s-29.842286 93.696-66.925714 93.696c-37.083429-0.512-66.925714-41.984-66.925714-93.696z m-171.885714 0c0-51.712 29.769143-93.696 66.852571-93.696 37.083429 0 66.925714 41.984 66.925714 93.696s-29.842286 93.696-66.925714 93.696c-36.571429-0.512-66.925714-41.984-66.925714-93.696zM414.72 641.536c0-22.016 12.873143-40.448 28.818286-40.448 15.945143 0 28.818286 17.92 28.818285 40.448 0 22.528-12.873143 40.448-28.818285 40.448-15.945143-0.512-28.818286-18.432-28.818286-40.448zM783.286857 429.056C669.476571 334.848 512.512 345.6 512.512 345.6s-157.549714-10.752-270.774857 83.456c0 0-108.105143-484.864 270.774857-484.864s270.774857 484.864 270.774857 484.864zM842.971429 507.904S752.347429 346.112 512.512 346.112c-239.908571 0-330.459429 161.792-330.459429 161.792C143.36 403.968 144.457143 389.12 144.457143 389.12a457.142857 457.142857 0 0 1 130.194286-99.84c-3.072-34.816-7.68-88.064-7.168-115.2 0.512-42.496 26.770286-45.056 87.04-51.2 60.196571-5.632 47.835429 10.24 47.835428 37.376V245.76C466.139429 233.472 512 238.08 512 238.08s209.993143-21.504 368.054857 152.064c0.512-1.024 1.536 13.824-37.083428 117.76zM689.005714 488.448c-53.979429 25.6-141.531429 33.792-176.493714 33.792-35.035429 0-122.514286-8.192-176.566857-33.792-25.746286-8.704-36.059429-15.36-36.059429-24.064 0-1.024 1.024-2.56 2.56-4.096 50.468571-31.232 126.171429-51.2 210.578286-51.2s160.109714 19.968 210.505143 51.2c1.536 2.048 2.633143 3.072 2.633143 4.096-0.512 8.704-10.825143 15.36-37.083429 24.064z"  horiz-adv-x="1024" />

    
    <glyph glyph-name="weixin" unicode="&#58953;" d="M1316.184844 239.370331c0 177.651311-186.354689 322.317549-395.601457 322.317548-221.607028 0-396.11342-144.812513-396.113421-322.317548 0-177.870724 174.506392-322.244411 396.113421-322.244411 46.442397 0 93.32362 11.190058 139.839154 22.23384l127.698308-66.628384-35.106064 110.94979c93.61617 66.920934 163.170059 155.563745 163.170059 255.689165z m-518.106992 49.294764c-29.181916 0-52.805371 22.526391-52.805371 50.318692 0 27.792301 23.623455 50.318692 52.805371 50.318691 29.108778 0 52.732233-22.526391 52.732233-50.318691 0-27.646025-23.623455-50.318692-52.732233-50.318692z m256.274266 0.365689c-29.108778 0-52.732233 22.526391-52.732234 50.318691 0 27.792301 23.623455 50.318692 52.732234 50.318692 29.181916 0 52.805371-22.453253 52.805371-50.318692 0-27.792301-23.623455-50.318692-52.805371-50.318691zM466.032998 894.902936C210.051282 894.902936 0.292551 728.441683 0.292551 517.147061c0-122.06671 69.773302-222.192129 186.354688-299.864295l-46.588672-133.622456 162.804371 77.818442c58.290694-10.970645 105.025641-22.23384 163.17006-22.233841 14.627527 0 29.181916 0.658239 43.516891 1.755303a316.3934 316.3934 0 0 0-14.334976 93.104207c0 194.107278 174.798943 351.572602 395.967145 351.572602 15.212628 0 30.059567-1.023927 44.833369-2.632955C895.643454 761.938719 695.026927 894.902936 466.032998 894.902936zM309.591601 590.065281c-34.959789 0-63.33719 27.060924-63.337191 60.411685 0 33.350761 28.377402 60.338547 63.337191 60.338547s63.33719-27.060924 63.33719-60.338547c0-33.350761-28.377402-60.411685-63.33719-60.411685z m325.316191 0c-34.959789 0-63.33719 27.060924-63.33719 60.411685 0 33.350761 28.377402 60.338547 63.33719 60.338547s63.264053-27.060924 63.264053-60.338547c0-33.350761-28.304264-60.411685-63.264053-60.411685z"  horiz-adv-x="1316" />

    
    <glyph glyph-name="linshikehu" unicode="&#58958;" d="M511.36192-127.36a508.16 508.16 0 0 0-361.6 149.696A508.224 508.224 0 0 0 0.00192 384c0 136.64 53.184 265.088 149.76 361.664A508.032 508.032 0 0 0 511.36192 895.424c136.64 0 265.088-53.12 361.728-149.76 199.36-199.424 199.36-523.84 0-723.2a508.48 508.48 0 0 0-361.792-149.888z m0 962.944A448.64 448.64 0 0 1 192.19392 703.36 448.576 448.576 0 0 1 59.84192 384a448.64 448.64 0 0 1 132.224-319.36 448.64 448.64 0 0 1 319.232-132.224 448.896 448.896 0 0 1 319.488 132.352c176 176 176 462.528 0 638.592A448.768 448.768 0 0 1 511.36192 835.584z m208.128-654.208a36.864 36.864 0 0 0-18.56 5.248L523.96992 293.888a221.44 221.44 0 0 1-3.072 1.728c-5.312 3.008-12.544 7.04-15.104 10.88l-0.448 0.64-0.768 0.448c-25.472 14.656-30.848 26.304-30.848 33.536V641.536a39.296 39.296 0 0 0 78.592 0v-282.88l178.048-102.976 1.792-1.024a46.784 46.784 0 0 0 20.48-24.128 34.56 34.56 0 0 0-2.048-29.504c-7.232-12.48-18.56-19.648-31.04-19.648z"  horiz-adv-x="1024" />

    
    <glyph glyph-name="youxiang" unicode="&#58959;" d="M1394.501818 42.914909c-0.279273-28.672-8.098909-56.785455-22.434909-81.733818l-440.32 481.373091L1367.691636 813.149091c17.687273-26.996364 26.996364-58.368 27.275637-90.391273v-679.749818M697.437091 354.955636l605.742545 518.516364a175.848727 175.848727 0 0 1-83.595636 21.317818H173.707636c-29.323636 0-58.088727-7.447273-83.595636-21.317818l607.325091-518.516364m167.377454 31.464728L724.619636 266.24a42.542545 42.542545 0 0 0-57.250909 0l-140.194909 120.087273L83.781818-101.376c27.554909-17.035636 59.392-26.065455 92.16-26.251636h1045.876364c32.581818 0 64.512 9.029818 92.16 26.251636l-447.394909 487.796364M27.275636 813.149091a167.377455 167.377455 0 0 1-27.182545-88.715636v-681.239273c0.186182-28.672 8.098909-56.971636 22.434909-81.733818L462.661818 442.740364 27.275636 813.149091"  horiz-adv-x="1396" />

    
    <glyph glyph-name="wangwang" unicode="&#58960;" d="M869.922133 643.413333c51.063467-41.3696 89.770667-88.541867 116.053334-141.448533 26.350933-52.906667 38.775467-109.9776 37.205333-171.349333a453.4272 453.4272 0 0 0-38.2976-175.9232 437.930667 437.930667 0 0 0-99.874133-140.834134 487.6288 487.6288 0 0 0-152.712534-96.597333c-59.255467-24.1664-124.928-38.5024-196.881066-43.144533-72.021333-4.573867-139.537067 2.321067-202.683734 20.6848a508.5184 508.5184 0 0 0-167.253333 82.807466 425.1648 425.1648 0 0 0-116.053333 134.007467A394.581333 394.581333 0 0 0 1.092267 285.696a346.999467 346.999467 0 0 0 16.861866 129.979733c13.585067 39.867733 31.744 76.458667 54.613334 109.841067a574.395733 574.395733 0 0 0 75.434666 89.634133c27.511467 26.487467 54.0672 49.288533 79.598934 68.471467 44.100267 32.904533 57.685333 76.663467 40.618666 131.072A178.858667 178.858667 0 0 1 257.365333 842.3424 377.6512 377.6512 0 0 1 245.077333 864.802133c-3.8912 6.485333-6.826667 12.288-8.738133 17.2032-1.911467 4.983467-1.706667 8.669867 0.6144 10.922667 2.321067 3.072 9.079467 2.730667 20.343467-1.160533 11.195733-3.822933 23.9616-9.147733 38.2976-16.042667 14.336-6.894933 29.218133-14.404267 44.714666-22.459733 15.496533-8.055467 28.672-15.496533 39.458134-22.391467 13.994667-8.465067 26.965333-15.5648 38.912-21.2992 12.014933-5.7344 24.576-10.513067 37.751466-14.336 13.175467-3.8912 27.716267-7.714133 43.554134-11.537067l56.32-13.789866c27.101867-6.894933 54.613333-13.994667 82.466133-21.2992 27.716267-7.236267 55.0912-15.837867 81.92-25.873067 26.624-9.966933 52.565333-21.230933 77.824-33.928533 25.122133-12.629333 48.9472-27.784533 71.406933-45.397334zM599.313067 223.709867c9.284267 0.750933 17.954133 5.5296 26.077866 14.336 8.192 8.874667 14.7456 20.138667 19.797334 33.928533 4.983467 13.789867 8.328533 29.9008 9.8304 48.3328 1.570133 18.432 0.8192 37.956267-2.321067 58.641067-7.714133 48.264533-20.8896 85.060267-39.458133 110.3872-18.568533 25.258667-37.956267 36.795733-58.026667 34.474666-15.5648-2.2528-27.716267-12.970667-36.6592-32.1536-8.874667-19.182933-12.970667-44.509867-12.151467-75.912533 20.138667-4.573867 38.2976-8.465067 54.613334-11.537067 13.858133-3.003733 26.8288-5.7344 38.912-7.9872 11.946667-2.321067 18.705067-3.4816 20.2752-3.4816 6.144-1.501867 6.9632-3.822933 2.321066-6.894933l-16.247466-16.110933c-10.103467-9.966933-20.48-20.6848-31.402667-32.221867l-44.100267-45.943467c8.533333-22.254933 18.773333-39.5264 30.72-51.746133 12.0832-12.288 24.644267-17.681067 37.819734-16.110933z m291.498666 52.906666c15.496533 3.822933 28.808533 18.0224 40.072534 42.530134 11.195733 24.576 14.472533 59.8016 9.8304 105.813333a390.280533 390.280533 0 0 1-10.4448 54.613333 201.386667 201.386667 0 0 1-17.408 44.8512 97.757867 97.757867 0 0 1-23.210667 29.354667c-8.533333 6.826667-17.066667 9.557333-25.531733 7.9872-16.315733-3.072-28.2624-15.701333-36.0448-37.956267-7.714133-22.186667-11.605333-47.104-11.605334-74.752 17.749333-3.072 33.655467-6.144 47.650134-9.147733 12.356267-2.321067 23.552-4.232533 33.655466-5.802667 10.0352-1.501867 15.837867-2.2528 17.408-2.2528 4.642133-1.570133 5.461333-3.822933 2.321067-6.894933-1.570133-1.570133-6.5536-6.3488-15.086933-14.336a731.136 731.136 0 0 0-29.013334-25.941333c-12.424533-10.717867-25.941333-23.005867-40.686933-36.795734 6.9632-23.005867 15.291733-41.3696 24.9856-55.159466 9.693867-13.858133 20.6848-19.182933 33.109333-16.110934z"  horiz-adv-x="1024" />

    
    <glyph glyph-name="close-circle" unicode="&#58939;" d="M511.360961-126.84800199999995a508.159047 508.159047 0 0 0-361.599322 149.759719A508.223047 508.223047 0 0 0 0.00192 384.447039C0.00192 521.278783 53.18582 649.726542 149.761639 746.2383609999999A508.031047 508.031047 0 0 0 511.360961 895.99808c136.639744 0 265.087503-53.1839 361.727322-149.759719 199.359626-199.423626 199.359626-523.903018 0-723.262644a508.479047 508.479047 0 0 0-361.791322-149.823719z m0 963.006194a448.639159 448.639159 0 0 1-319.231401-132.223752 448.575159 448.575159 0 0 1-132.287752-319.359401 448.639159 448.639159 0 0 1 132.223752-319.359401 448.639159 448.639159 0 0 1 319.231401-132.287752 448.895158 448.895158 0 0 1 319.487401 132.351752c175.99967 175.99967 175.99967 462.527133 0 638.654802A448.767159 448.767159 0 0 1 511.360961 836.158192zM704.384599 528.830768L364.993236 189.43940499999997a31.99994 31.99994 0 0 0-45.247916 45.247915l339.391364 339.391364a31.99994 31.99994 0 1 0 45.247915-45.247916zM659.136684 189.43940499999997L319.74532 528.830768a31.99994 31.99994 0 0 0 45.247916 45.247916l339.391363-339.391364a31.99994 31.99994 0 1 0-45.247915-45.247915z"  horiz-adv-x="1024" />

    
    <glyph glyph-name="right-circle" unicode="&#58940;" d="M511.360961-126.848002a508.159047 508.159047 0 0 0-361.599322 149.759719A508.223047 508.223047 0 0 0 0.00192 384.447039C0.00192 521.278783 53.18582 649.726542 149.761639 746.238361A508.031047 508.031047 0 0 0 511.360961 895.99808c136.639744 0 265.087503-53.1839 361.727322-149.759719 199.359626-199.423626 199.359626-523.903018 0-723.262644a508.479047 508.479047 0 0 0-361.791322-149.823719z m0 963.006194a448.639159 448.639159 0 0 1-319.231401-132.223752 448.575159 448.575159 0 0 1-132.287752-319.359401 448.639159 448.639159 0 0 1 132.223752-319.359401 448.639159 448.639159 0 0 1 319.231401-132.287752 448.895158 448.895158 0 0 1 319.487401 132.351752c175.99967 175.99967 175.99967 462.527133 0 638.654802A448.767159 448.767159 0 0 1 511.360961 836.158192zM288.449379 377.791052L412.033147 259.199274s6.847987-4.223992 15.359972 0l304.319429 315.903408s43.327919 11.519978 35.263934-45.695915c-29.311945-37.11993-328.511384-395.199259-328.511384-395.199259s-19.583963-13.823974-38.399928 0c-18.687965 23.295956-143.99973 193.919636-143.99973 193.919637s-3.391994 41.279923 32.383939 49.727907z"  horiz-adv-x="1024" />

    
    <glyph glyph-name="copy" unicode="&#58941;" d="M626.594909 263.633455v-195.025455a34.816 34.816 0 0 0-69.632 0V263.633455l-199.959273 4.282181a34.816 34.816 0 0 0 0 69.445819H552.96l4.375273 199.214545a34.722909 34.722909 0 1 0 69.445818 0v-194.932364l199.959273-4.282181a34.816 34.816 0 0 0 0-69.445819H630.970182l-4.375273-4.282181zM76.427636 104.075636a37.701818 37.701818 0 0 0-75.403636 0V749.754182C0.930909 829.905455 66.094545 894.976 146.525091 894.976h646.702545a37.701818 37.701818 0 1 0 0-75.310545H146.525091a70.097455 70.097455 0 0 1-70.097455-69.911273v-645.678546zM268.288 657.687273a32.302545 32.302545 0 0 1-32.302545-32.302546v-645.678545c0-17.780364 14.522182-32.209455 32.302545-32.209455H915.083636a32.302545 32.302545 0 0 1 32.302546 32.209455V625.384727a32.302545 32.302545 0 0 1-32.302546 32.302546H268.288z m0 75.403636H915.083636c59.578182 0 107.799273-48.221091 107.799273-107.706182v-645.678545c0-59.392-48.314182-107.613091-107.799273-107.613091H268.288c-59.578182 0-107.706182 48.221091-107.706182 107.613091V625.384727c0 59.485091 48.221091 107.613091 107.706182 107.613091z"  horiz-adv-x="1024" />

    
    <glyph glyph-name="gouwuche" unicode="&#58944;" d="M224.768-53.248a74.24 74.24 0 0 1 74.6496-73.8816 74.24 74.24 0 0 1 74.6496 73.8304 74.24 74.24 0 0 1-74.6496 73.8304A74.24 74.24 0 0 1 224.768-53.248zM747.2128-53.248a74.24 74.24 0 0 1 74.6496-73.8816 74.24 74.24 0 0 1 74.6496 73.8304 74.24 74.24 0 0 1-74.6496 73.8304 74.24 74.24 0 0 1-74.6496-73.8304zM956.928 108.4416H359.8336c-32 0-64 28.16-71.0656 59.7504L182.1184 790.528C171.52 850.2784 114.688 896 54.272 896H29.3376C15.104 896 0.8704 881.92 0.8704 867.84c0-14.0288 14.2336-28.1088 28.4672-28.1088h24.8832c31.9488 0 63.9488-28.16 71.0656-59.7504l106.5984-622.336c10.7008-59.7504 67.584-105.472 128-105.472h596.992c14.2336 0 28.4672 14.08 28.4672 28.16a27.8528 27.8528 0 0 1-28.416 28.1088zM928.4608 751.872H292.352c-14.1824 0-28.416-14.08-28.416-28.16 0-14.0288 14.2336-28.16 28.416-28.16h636.16c28.4672 0 42.6496-17.5616 35.584-45.6704l-78.1824-309.4016c-7.168-35.1232-46.2336-63.2832-81.7664-66.816l-440.6784-31.6416a26.368 26.368 0 0 1-24.8832-31.6416c0-14.0288 14.1824-28.1088 31.9488-24.576l440.7296 31.6416c60.416 3.4816 117.248 52.736 131.4816 109.0048l78.1824 309.3504c14.2336 59.8016-28.416 116.0704-92.416 116.0704z"  horiz-adv-x="1024" />

    
    <glyph glyph-name="wode" unicode="&#58942;" d="M513.954909 377.018182c-146.618182 0-265.402182 116.177455-265.402182 259.490909C248.552727 779.869091 367.383273 896 513.954909 896c146.525091 0 265.355636-116.177455 265.355636-259.490909s-118.830545-259.490909-265.355636-259.490909z m0.465455 55.621818c115.106909 0 208.384 91.229091 208.384 203.729455s-93.277091 203.729455-208.337455 203.729454c-115.106909 0-208.384-91.229091-208.384-203.729454s93.277091-203.729455 208.384-203.729455zM513.954909-86.295273c-322.653091 0-463.034182 35.700364-463.034182 174.312728 0 161.140364 228.864 344.622545 463.034182 344.622545 234.123636 0 462.987636-183.482182 462.987636-344.622545 0-138.612364-140.381091-174.312727-462.987636-174.312728z m410.065455 167.330909c0 128.465455-203.915636 294.4-411.554909 294.4-207.685818 0-411.601455-165.888-411.601455-294.4 0-83.874909 121.297455-115.2 411.601455-115.2 290.257455 0 411.554909 31.325091 411.554909 115.2z"  horiz-adv-x="1024" />

    


  </font>
</defs>
</svg>
